<?xml version="1.0" encoding="UTF-8"?>
<svg version="1.1" xmlns="http://www.w3.org/2000/svg" xmlns:xlink="http://www.w3.org/1999/xlink"
     viewBox="0 0 1536 1532">
  <style>
    .primary { fill: #41B7AC; }
    .accent { fill: #E8AE26; }
    .bg { fill: #F7F7F6; }
  </style>
  
  <!-- Background shape -->
  <path class="bg" d="M765.000000,1533.000000 
    C510.402405,1533.000000 255.804794,1533.000000 1.000000,1533.000000 
    C1.000000,1276.638672 1.000000,1020.277283 1.297237,763.607422 
    C28.874748,791.349487 56.117062,819.437073 83.443840,847.442261 
    C129.164337,894.297546 174.919052,941.119629 220.737274,987.879395 
    C223.613403,990.814575 224.888306,993.762634 224.883560,997.962830 
    C224.768784,1099.445312 224.825455,1200.927979 224.710159,1302.410400 
    C224.704865,1307.077026 225.791321,1308.764404 230.779037,1308.757324 
    C327.928894,1308.618042 425.079651,1308.812622 522.228210,1308.426880 
    C533.843628,1308.380737 543.881836,1309.363892 550.916138,1319.688599"/>

  <!-- Primary turquoise shape -->
  <path class="primary" d="M1285.224487,297.500000 
    C1285.224976,281.832153 1285.054932,266.161316 1285.330444,250.498306 
    C1285.412720,245.823639 1283.947632,244.626572 1279.383423,244.632126 
    C1183.386230,244.749008 1087.388794,244.661758 991.391785,244.847855 
    C986.006897,244.858292 982.441345,243.092010 978.819763,239.454224 
    C944.148438,204.628098 909.381287,169.897095 874.567871,135.212845"/>

  <!-- Gold accent -->
  <path class="accent" d="M966.327698,1331.987305 
    C973.007019,1324.709473 979.955505,1317.314575 987.273682,1310.305786 
    C988.670166,1308.968262 991.524963,1308.706665 993.708191,1308.703003 
    C1044.008545,1308.619507 1094.308960,1308.640991 1144.609375,1308.641968"/>
</svg>