<?xml version="1.0" encoding="UTF-8"?>
<svg version="1.1" xmlns="http://www.w3.org/2000/svg" xmlns:xlink="http://www.w3.org/1999/xlink" x="0px" y="0px"
     width="100%" viewBox="0 0 1536 1532" enable-background="new 0 0 1536 1532" xml:space="preserve">
<style type="text/css">
    .primary { fill: #41B7AC; }
    .accent { fill: #E8AE26; }
    .background { fill: #808285; }
</style>

<path class="background" d="M771.000000,0.999990 
	C1026.264404,1.000000 1281.528809,1.000000 1537.000000,1.000000 
	C1537.000000,259.361328 1537.000000,517.722717 1536.612793,776.542725 
	C1528.660767,777.203735 1526.964844,784.247375 1523.560791,788.718323 
	C1519.632690,793.877563 1517.593384,795.737000 1511.462646,793.951904 
	C1520.012695,785.630310 1528.431152,777.604492 1536.375366,770.030640 
	C1529.956177,763.168457 1524.756714,757.147034 1519.078857,751.616638 
	C1486.755005,720.132202 1454.308838,688.773499 1421.920166,657.355408 
	C1385.339355,621.870605 1348.817017,586.325378 1312.140381,550.939941"/>

<path class="accent" d="M966.327698,1331.987305 
	C973.007019,1324.709473 979.955505,1317.314575 987.273682,1310.305786 
	C988.670166,1308.968262 991.524963,1308.706665 993.708191,1308.703003 
	C1044.008545,1308.619507 1094.308960,1308.640991 1144.609375,1308.641968 
	C1196.575439,1308.642944 1248.541382,1308.644043 1300.507446,1308.641968"/>

<path class="primary" d="M1285.224487,297.500000 
	C1285.224976,281.832153 1285.054932,266.161316 1285.330444,250.498306 
	C1285.412720,245.823639 1283.947632,244.626572 1279.383423,244.632126 
	C1183.386230,244.749008 1087.388794,244.661758 991.391785,244.847855 
	C986.006897,244.858292 982.441345,243.092010 978.819763,239.454224"/>
</svg>