<svg width="300" height="300" viewBox="0 0 300 300" xmlns="http://www.w3.org/2000/svg">
  <!-- Background -->
  <rect width="300" height="300" fill="white"/>
  
  <!-- Eight-pointed star frame - EXACT as described -->
  <g transform="translate(150,150)">
    <!-- Outer golden yellow border -->
    <path d="M0,-120 L35,-35 L120,-35 L35,35 L35,120 L0,35 L-35,120 L-35,35 L-120,-35 L-35,-35 Z" 
          fill="none" stroke="#D4AF37" stroke-width="8"/>
    <!-- Inner teal border -->
    <path d="M0,-120 L35,-35 L120,-35 L35,35 L35,120 L0,35 L-35,120 L-35,35 L-120,-35 L-35,-35 Z" 
          fill="none" stroke="#41B7AC" stroke-width="4"/>
  </g>
  
  <!-- Mosque dome - teal semi-circular shape -->
  <path d="M120,80 Q150,50 180,80 L180,100 L120,100 Z" fill="#41B7AC"/>
  
  <!-- Crescent moon - perched on dome, facing upwards and to the right -->
  <path d="M165,75 Q170,80 165,85 Q160,80 165,75" fill="#41B7AC"/>
  
  <!-- VGM text - large, bold, black serif font -->
  <text x="150" y="160" text-anchor="middle" font-family="serif" font-size="36" font-weight="bold" fill="black">VGM</text>
  
  <!-- Two thin horizontal black lines -->
  <line x1="100" y1="180" x2="200" y2="180" stroke="black" stroke-width="2"/>
  <line x1="100" y1="200" x2="200" y2="200" stroke="black" stroke-width="2"/>
  
  <!-- Full name text - smaller, lighter teal, sans-serif -->
  <text x="150" y="195" text-anchor="middle" font-family="sans-serif" font-size="12" fill="#41B7AC">VERENIGING VAN GENTSE MOSKEEËN</text>
</svg>